STARTFONT 2.1
COMMENT +
COMMENT  Copyright 1986, 1985 Bigelow & Holmes. 
COMMENT  Copyright 1996 BIZNET Poland, Inc.
COMMENT -
FONT -BIZNET-Fotinos-Medium-R-Normal-Sans-20-140-100-100-P-114-ISO8859-2
SIZE 14 100 100
FONTBOUNDINGBOX 17 19 -1 -4
STARTPROPERTIES 21
FOUNDRY "BIZNET"
FAMILY_NAME "BIZNET Fotinos"
WEIGHT_NAME "Medium"
SLANT "R"
SETWIDTH_NAME "Normal"
ADD_STYLE_NAME "Sans"
PIXEL_SIZE 20
POINT_SIZE 140
RESOLUTION_X 100
RESOLUTION_Y 100
SPACING "P"
AVERAGE_WIDTH 114
CHARSET_REGISTRY "ISO8859"
CHARSET_ENCODING "2"
FONT_ASCENT 18
FONT_DESCENT 5
FACE_NAME "BIZNET Fotinos Sans"
DEFAULT_CHAR 0
CHARSET_COLLECTIONS "ASCII ISO8859-2"
COPYRIGHT "Copyright Bigelow & Holmes 1986, 1985. Copyright (c) 1996 BIZNET Poland, Inc. All Rights Reserved."
NOTICE "The name "BIZNET" is a registered trademark of BIZNET Poland, Inc."
ENDPROPERTIES
CHARS 190
STARTCHAR space
ENCODING 32
SWIDTH 316 0
DWIDTH 6 0
BBX 1 1 0 0
BITMAP
00
ENDCHAR
STARTCHAR exclam
ENCODING 33
SWIDTH 205 0
DWIDTH 6 0
BBX 2 14 2 0
BITMAP
C0
C0
C0
C0
C0
C0
C0
C0
C0
C0
00
00
C0
C0
ENDCHAR
STARTCHAR quotedbl
ENCODING 34
SWIDTH 373 0
DWIDTH 7 0
BBX 5 5 1 9
BITMAP
D8
D8
D8
D8
D8
ENDCHAR
STARTCHAR numbersign
ENCODING 35
SWIDTH 633 0
DWIDTH 13 0
BBX 12 14 0 0
BITMAP
06E0
0EC0
0CC0
0CC0
7FF0
7FF0
1980
1980
1980
FFE0
FFE0
3300
3300
7600
ENDCHAR
STARTCHAR dollar
ENCODING 36
SWIDTH 633 0
DWIDTH 13 0
BBX 8 18 2 -2
BITMAP
18
18
7F
FD
D8
D8
D8
78
38
1C
1E
1B
1B
1B
FF
7E
1C
18
ENDCHAR
STARTCHAR percent
ENCODING 37
SWIDTH 669 0
DWIDTH 13 0
BBX 13 14 0 0
BITMAP
7838
FC30
CC60
CCE0
FDC0
7B80
03F0
06F0
0F98
1D98
3998
3198
60F0
E0F0
ENDCHAR
STARTCHAR ampersand
ENCODING 38
SWIDTH 697 0
DWIDTH 14 0
BBX 13 14 0 0
BITMAP
0F80
1FC0
18C0
18C0
1BC0
1F80
7E00
6718
C398
C1D8
E0F0
F0E0
7FE0
1F38
ENDCHAR
STARTCHAR quoteright
ENCODING 39
SWIDTH 229 0
DWIDTH 5 0
BBX 3 5 1 9
BITMAP
E0
E0
60
60
C0
ENDCHAR
STARTCHAR parenleft
ENCODING 40
SWIDTH 325 0
DWIDTH 7 0
BBX 5 17 1 -3
BITMAP
08
18
30
60
60
C0
C0
C0
C0
C0
C0
C0
60
60
30
18
08
ENDCHAR
STARTCHAR parenright
ENCODING 41
SWIDTH 325 0
DWIDTH 7 0
BBX 5 17 1 -3
BITMAP
80
C0
60
30
30
18
18
18
18
18
18
18
30
30
60
C0
80
ENDCHAR
STARTCHAR asterisk
ENCODING 42
SWIDTH 482 0
DWIDTH 10 0
BBX 8 7 1 7
BITMAP
18
18
DB
24
18
64
26
ENDCHAR
STARTCHAR plus
ENCODING 43
SWIDTH 633 0
DWIDTH 13 0
BBX 12 12 0 0
BITMAP
0600
0600
0600
0600
0600
FFF0
FFF0
0600
0600
0600
0600
0600
ENDCHAR
STARTCHAR comma
ENCODING 44
SWIDTH 316 0
DWIDTH 6 0
BBX 3 7 2 -4
BITMAP
E0
E0
E0
60
60
60
C0
ENDCHAR
STARTCHAR minus
ENCODING 45
SWIDTH 633 0
DWIDTH 13 0
BBX 12 2 0 5
BITMAP
FFF0
FFF0
ENDCHAR
STARTCHAR period
ENCODING 46
SWIDTH 316 0
DWIDTH 6 0
BBX 2 2 2 0
BITMAP
C0
C0
ENDCHAR
STARTCHAR slash
ENCODING 47
SWIDTH 494 0
DWIDTH 10 0
BBX 10 17 0 -3
BITMAP
00C0
01C0
0180
0380
0300
0700
0600
0E00
0C00
1C00
1800
3800
3000
7000
6000
E000
C000
ENDCHAR
STARTCHAR zero
ENCODING 48
SWIDTH 633 0
DWIDTH 13 0
BBX 10 14 1 0
BITMAP
1E00
3F00
7380
6180
C0C0
C0C0
C0C0
C0C0
C0C0
C0C0
6180
7380
3F00
1E00
ENDCHAR
STARTCHAR one
ENCODING 49
SWIDTH 633 0
DWIDTH 13 0
BBX 4 14 3 0
BITMAP
F0
F0
30
30
30
30
30
30
30
30
30
30
30
30
ENDCHAR
STARTCHAR two
ENCODING 50
SWIDTH 633 0
DWIDTH 13 0
BBX 9 14 1 0
BITMAP
3E00
FF00
C380
0180
0180
0180
0700
0F00
1C00
3800
7000
E000
FF80
FF80
ENDCHAR
STARTCHAR three
ENCODING 51
SWIDTH 633 0
DWIDTH 13 0
BBX 8 14 2 0
BITMAP
7C
FE
87
03
03
06
78
7E
07
03
03
87
FE
FC
ENDCHAR
STARTCHAR four
ENCODING 52
SWIDTH 633 0
DWIDTH 13 0
BBX 11 14 1 0
BITMAP
0380
0780
0780
0D80
1D80
3980
7180
E180
FFE0
FFE0
0180
0180
0180
0180
ENDCHAR
STARTCHAR five
ENCODING 53
SWIDTH 633 0
DWIDTH 13 0
BBX 8 14 2 0
BITMAP
FF
FF
C0
C0
C0
F8
FE
07
03
03
03
87
FE
F8
ENDCHAR
STARTCHAR six
ENCODING 54
SWIDTH 633 0
DWIDTH 13 0
BBX 10 14 1 0
BITMAP
1F80
3F80
7080
6000
C000
CF00
DF80
E1C0
C0C0
C0C0
40C0
6180
3F80
1E00
ENDCHAR
STARTCHAR seven
ENCODING 55
SWIDTH 633 0
DWIDTH 13 0
BBX 9 14 2 0
BITMAP
FF80
FF80
0380
0300
0700
0600
0C00
1C00
1800
3800
3000
7000
6000
6000
ENDCHAR
STARTCHAR eight
ENCODING 56
SWIDTH 633 0
DWIDTH 13 0
BBX 10 14 2 0
BITMAP
1F00
3FC0
71C0
60C0
60C0
3900
3E00
7F80
E1C0
C0C0
C0C0
E1C0
7F80
3F00
ENDCHAR
STARTCHAR nine
ENCODING 57
SWIDTH 633 0
DWIDTH 13 0
BBX 10 14 1 0
BITMAP
3E00
7F00
E180
C080
C0C0
C0C0
E1C0
7EC0
3CC0
00C0
0180
4380
7F00
7C00
ENDCHAR
STARTCHAR colon
ENCODING 58
SWIDTH 316 0
DWIDTH 6 0
BBX 2 11 2 0
BITMAP
C0
C0
00
00
00
00
00
00
00
C0
C0
ENDCHAR
STARTCHAR semicolon
ENCODING 59
SWIDTH 316 0
DWIDTH 6 0
BBX 2 15 2 -4
BITMAP
C0
C0
00
00
00
00
00
00
00
C0
C0
C0
C0
C0
80
ENDCHAR
STARTCHAR less
ENCODING 60
SWIDTH 633 0
DWIDTH 13 0
BBX 13 12 1 0
BITMAP
0018
0078
01F0
07C0
1F00
FC00
7C00
1F00
07C0
01F0
0078
0018
ENDCHAR
STARTCHAR equal
ENCODING 61
SWIDTH 633 0
DWIDTH 13 0
BBX 12 6 0 3
BITMAP
FFF0
FFF0
0000
0000
FFF0
FFF0
ENDCHAR
STARTCHAR greater
ENCODING 62
SWIDTH 633 0
DWIDTH 13 0
BBX 13 12 0 0
BITMAP
C000
F000
7C00
1F00
07C0
01F0
01F8
07C0
1F00
7C00
F000
C000
ENDCHAR
STARTCHAR question
ENCODING 63
SWIDTH 422 0
DWIDTH 8 0
BBX 8 14 0 0
BITMAP
7C
FE
87
03
07
0E
1C
38
30
30
30
00
30
30
ENDCHAR
STARTCHAR at
ENCODING 64
SWIDTH 858 0
DWIDTH 17 0
BBX 15 14 3 0
BITMAP
03E0
0FF8
1C1C
31EE
63C6
6646
CC86
CD86
CDEC
CE7C
EC78
7820
3FE0
0FC0
ENDCHAR
STARTCHAR A
ENCODING 65
SWIDTH 690 0
DWIDTH 14 0
BBX 13 14 0 0
BITMAP
0700
0700
0F80
0D80
0D80
18C0
18C0
30E0
3FE0
3FE0
6030
6030
E030
C018
ENDCHAR
STARTCHAR B
ENCODING 66
SWIDTH 575 0
DWIDTH 12 0
BBX 9 14 2 0
BITMAP
FC00
FE00
C300
C300
C300
C600
FC00
FE00
C380
C180
C180
C380
FF00
FE00
ENDCHAR
STARTCHAR C
ENCODING 67
SWIDTH 692 0
DWIDTH 14 0
BBX 12 14 1 0
BITMAP
0FE0
3FF0
7810
6000
E000
C000
C000
C000
C000
E000
6000
7810
3FF0
0FC0
ENDCHAR
STARTCHAR D
ENCODING 68
SWIDTH 749 0
DWIDTH 15 0
BBX 12 14 2 0
BITMAP
FF00
FFC0
C1E0
C060
C030
C030
C030
C030
C030
C030
C060
C0E0
FFC0
FF00
ENDCHAR
STARTCHAR E
ENCODING 69
SWIDTH 542 0
DWIDTH 11 0
BBX 8 14 2 0
BITMAP
FF
FF
C0
C0
C0
C0
FE
FE
C0
C0
C0
C0
FF
FF
ENDCHAR
STARTCHAR F
ENCODING 70
SWIDTH 536 0
DWIDTH 11 0
BBX 8 14 2 0
BITMAP
FF
FF
C0
C0
C0
C0
FE
FE
C0
C0
C0
C0
C0
C0
ENDCHAR
STARTCHAR G
ENCODING 71
SWIDTH 723 0
DWIDTH 14 0
BBX 12 14 1 0
BITMAP
0FE0
3FF0
7810
6000
E000
C000
C000
C030
C030
E030
6030
7830
3FF0
0FE0
ENDCHAR
STARTCHAR H
ENCODING 72
SWIDTH 735 0
DWIDTH 15 0
BBX 11 14 2 0
BITMAP
C060
C060
C060
C060
C060
C060
FFE0
FFE0
C060
C060
C060
C060
C060
C060
ENDCHAR
STARTCHAR I
ENCODING 73
SWIDTH 288 0
DWIDTH 6 0
BBX 2 14 2 0
BITMAP
C0
C0
C0
C0
C0
C0
C0
C0
C0
C0
C0
C0
C0
C0
ENDCHAR
STARTCHAR J
ENCODING 74
SWIDTH 311 0
DWIDTH 6 0
BBX 6 17 -1 -3
BITMAP
0C
0C
0C
0C
0C
0C
0C
0C
0C
0C
0C
0C
0C
0C
0C
F8
F0
ENDCHAR
STARTCHAR K
ENCODING 75
SWIDTH 653 0
DWIDTH 13 0
BBX 11 14 2 0
BITMAP
C1C0
C380
C700
C600
CC00
DC00
F800
F800
DC00
CE00
C700
C380
C1C0
C0E0
ENDCHAR
STARTCHAR L
ENCODING 76
SWIDTH 533 0
DWIDTH 11 0
BBX 9 14 2 0
BITMAP
C000
C000
C000
C000
C000
C000
C000
C000
C000
C000
C000
C000
FF80
FF80
ENDCHAR
STARTCHAR M
ENCODING 77
SWIDTH 861 0
DWIDTH 17 0
BBX 13 14 2 0
BITMAP
E038
E038
F078
F078
F878
D8D8
D8D8
DCD8
CD98
CD98
CF98
C718
C718
C018
ENDCHAR
STARTCHAR N
ENCODING 78
SWIDTH 741 0
DWIDTH 15 0
BBX 11 14 2 0
BITMAP
E060
E060
F060
F060
D860
DC60
CC60
C660
C760
C360
C1E0
C1E0
C0E0
C060
ENDCHAR
STARTCHAR O
ENCODING 79
SWIDTH 777 0
DWIDTH 16 0
BBX 14 14 1 0
BITMAP
0FC0
3FF0
7878
6018
E01C
C00C
C00C
C00C
C00C
E01C
6018
7878
3FF0
0FC0
ENDCHAR
STARTCHAR P
ENCODING 80
SWIDTH 553 0
DWIDTH 11 0
BBX 9 14 2 0
BITMAP
FE00
FF00
C380
C180
C180
C180
C700
FF00
FC00
C000
C000
C000
C000
C000
ENDCHAR
STARTCHAR Q
ENCODING 81
SWIDTH 777 0
DWIDTH 16 0
BBX 15 17 1 -3
BITMAP
0FC0
3FF0
7878
6018
E01C
C00C
C00C
C00C
C00C
E01C
6018
7878
3FF0
0FE0
0078
003E
000C
ENDCHAR
STARTCHAR R
ENCODING 82
SWIDTH 633 0
DWIDTH 13 0
BBX 11 14 2 0
BITMAP
FE00
FF00
C380
C180
C180
C100
C700
FC00
FE00
C600
C700
C380
C1C0
C0E0
ENDCHAR
STARTCHAR S
ENCODING 83
SWIDTH 539 0
DWIDTH 11 0
BBX 9 14 1 0
BITMAP
3F00
7F00
E100
C000
C000
7000
3C00
0F00
0380
0180
0180
8380
FF00
7E00
ENDCHAR
STARTCHAR T
ENCODING 84
SWIDTH 633 0
DWIDTH 13 0
BBX 12 14 0 0
BITMAP
FFF0
FFF0
0600
0600
0600
0600
0600
0600
0600
0600
0600
0600
0600
0600
ENDCHAR
STARTCHAR U
ENCODING 85
SWIDTH 693 0
DWIDTH 14 0
BBX 10 14 2 0
BITMAP
C0C0
C0C0
C0C0
C0C0
C0C0
C0C0
C0C0
C0C0
C0C0
C0C0
C0C0
E1C0
7F80
3F00
ENDCHAR
STARTCHAR V
ENCODING 86
SWIDTH 654 0
DWIDTH 13 0
BBX 13 14 0 0
BITMAP
C018
6038
6030
7030
3060
3060
18E0
18C0
1CC0
0D80
0D80
0780
0700
0700
ENDCHAR
STARTCHAR W
ENCODING 87
SWIDTH 855 0
DWIDTH 17 0
BBX 17 14 0 0
BITMAP
C1C180
C1C180
61C380
61C300
636300
736300
336600
336600
363600
3E3C00
1E3C00
1E3C00
1C1C00
0C1800
ENDCHAR
STARTCHAR X
ENCODING 88
SWIDTH 626 0
DWIDTH 13 0
BBX 12 14 0 0
BITMAP
E070
7060
30C0
19C0
1D80
0F00
0700
0F00
0F00
1980
39C0
70C0
6060
C070
ENDCHAR
STARTCHAR Y
ENCODING 89
SWIDTH 623 0
DWIDTH 12 0
BBX 12 14 0 0
BITMAP
E030
6060
70E0
30C0
1980
1F80
0F00
0700
0600
0600
0600
0600
0600
0600
ENDCHAR
STARTCHAR Z
ENCODING 90
SWIDTH 605 0
DWIDTH 12 0
BBX 10 14 1 0
BITMAP
FFC0
FFC0
0180
0380
0300
0600
0E00
1C00
1800
3000
7000
E000
FFC0
FFC0
ENDCHAR
STARTCHAR bracketleft
ENCODING 91
SWIDTH 325 0
DWIDTH 7 0
BBX 4 17 2 -3
BITMAP
F0
F0
C0
C0
C0
C0
C0
C0
C0
C0
C0
C0
C0
C0
C0
F0
F0
ENDCHAR
STARTCHAR backslash
ENCODING 92
SWIDTH 494 0
DWIDTH 10 0
BBX 10 17 0 -3
BITMAP
C000
E000
6000
7000
3000
3800
1800
1C00
0C00
0E00
0600
0700
0300
0380
0180
01C0
00C0
ENDCHAR
STARTCHAR bracketright
ENCODING 93
SWIDTH 325 0
DWIDTH 7 0
BBX 4 17 1 -3
BITMAP
F0
F0
30
30
30
30
30
30
30
30
30
30
30
30
30
F0
F0
ENDCHAR
STARTCHAR asciicircum
ENCODING 94
SWIDTH 633 0
DWIDTH 13 0
BBX 12 13 0 2
BITMAP
0200
0600
0600
0F00
0F00
1F80
1980
39C0
30C0
70E0
6060
E070
C030
ENDCHAR
STARTCHAR underscore
ENCODING 95
SWIDTH 500 0
DWIDTH 10 0
BBX 8 2 1 -2
BITMAP
FF
FF
ENDCHAR
STARTCHAR quoteleft
ENCODING 96
SWIDTH 229 0
DWIDTH 5 0
BBX 3 5 1 9
BITMAP
60
C0
C0
E0
E0
ENDCHAR
STARTCHAR a
ENCODING 97
SWIDTH 552 0
DWIDTH 11 0
BBX 10 11 1 0
BITMAP
3E00
7F00
4300
0300
3F00
7F00
E300
C300
C700
FDC0
79C0
ENDCHAR
STARTCHAR b
ENCODING 98
SWIDTH 630 0
DWIDTH 13 0
BBX 10 14 2 0
BITMAP
C000
C000
C000
CF00
DF80
E1C0
C0C0
C0C0
C0C0
C0C0
C1C0
E180
FF80
DE00
ENDCHAR
STARTCHAR c
ENCODING 99
SWIDTH 518 0
DWIDTH 10 0
BBX 8 11 1 0
BITMAP
1F
7F
60
C0
C0
C0
C0
C0
61
7F
1E
ENDCHAR
STARTCHAR d
ENCODING 100
SWIDTH 630 0
DWIDTH 13 0
BBX 10 14 1 0
BITMAP
00C0
00C0
00C0
1EC0
7FC0
61C0
E0C0
C0C0
C0C0
C0C0
C0C0
E1C0
7EC0
3CC0
ENDCHAR
STARTCHAR e
ENCODING 101
SWIDTH 557 0
DWIDTH 11 0
BBX 9 11 1 0
BITMAP
1E00
7F00
6100
C180
FF80
FF80
C000
E000
7080
7F80
1F00
ENDCHAR
STARTCHAR f
ENCODING 102
SWIDTH 367 0
DWIDTH 7 0
BBX 8 16 0 0
BITMAP
0F
1F
30
30
30
FE
FE
30
30
30
30
30
30
30
30
30
ENDCHAR
STARTCHAR g
ENCODING 103
SWIDTH 623 0
DWIDTH 12 0
BBX 10 15 1 -4
BITMAP
1EC0
7FC0
61C0
E0C0
C0C0
C0C0
C0C0
C0C0
61C0
7EC0
3CC0
00C0
4180
7F80
3E00
ENDCHAR
STARTCHAR h
ENCODING 104
SWIDTH 620 0
DWIDTH 12 0
BBX 9 14 2 0
BITMAP
C000
C000
C000
CF00
DF80
F180
E180
C180
C180
C180
C180
C180
C180
C180
ENDCHAR
STARTCHAR i
ENCODING 105
SWIDTH 289 0
DWIDTH 6 0
BBX 2 14 2 0
BITMAP
C0
C0
00
C0
C0
C0
C0
C0
C0
C0
C0
C0
C0
C0
ENDCHAR
STARTCHAR j
ENCODING 106
SWIDTH 304 0
DWIDTH 6 0
BBX 6 18 -1 -4
BITMAP
0C
0C
00
0C
0C
0C
0C
0C
0C
0C
0C
0C
0C
0C
0C
8C
F8
F0
ENDCHAR
STARTCHAR k
ENCODING 107
SWIDTH 585 0
DWIDTH 12 0
BBX 9 14 2 0
BITMAP
C000
C000
C000
C700
C600
CE00
DC00
F800
F800
D800
CC00
CE00
C700
C380
ENDCHAR
STARTCHAR l
ENCODING 108
SWIDTH 289 0
DWIDTH 6 0
BBX 2 14 2 0
BITMAP
C0
C0
C0
C0
C0
C0
C0
C0
C0
C0
C0
C0
C0
C0
ENDCHAR
STARTCHAR m
ENCODING 109
SWIDTH 934 0
DWIDTH 19 0
BBX 14 11 2 0
BITMAP
CE38
DF7C
E38C
C30C
C30C
C30C
C30C
C30C
C30C
C30C
C30C
ENDCHAR
STARTCHAR n
ENCODING 110
SWIDTH 620 0
DWIDTH 12 0
BBX 9 11 2 0
BITMAP
CF00
DF80
F180
E180
C180
C180
C180
C180
C180
C180
C180
ENDCHAR
STARTCHAR o
ENCODING 111
SWIDTH 614 0
DWIDTH 12 0
BBX 10 11 1 0
BITMAP
1E00
7F80
6180
C0C0
C0C0
C0C0
C0C0
C0C0
6180
7F80
1E00
ENDCHAR
STARTCHAR p
ENCODING 112
SWIDTH 630 0
DWIDTH 13 0
BBX 10 15 2 -4
BITMAP
CF00
DF80
E1C0
C0C0
C0C0
C0C0
C0C0
C1C0
E180
FF80
CE00
C000
C000
C000
C000
ENDCHAR
STARTCHAR q
ENCODING 113
SWIDTH 630 0
DWIDTH 13 0
BBX 10 15 1 -4
BITMAP
1EC0
7FC0
61C0
E0C0
C0C0
C0C0
C0C0
C0C0
E1C0
7EC0
3CC0
00C0
00C0
00C0
00C0
ENDCHAR
STARTCHAR r
ENCODING 114
SWIDTH 409 0
DWIDTH 8 0
BBX 6 11 2 0
BITMAP
CC
DC
F0
C0
C0
C0
C0
C0
C0
C0
C0
ENDCHAR
STARTCHAR s
ENCODING 115
SWIDTH 510 0
DWIDTH 10 0
BBX 7 11 2 0
BITMAP
7C
FC
C0
C0
F0
7C
1E
06
86
FE
7C
ENDCHAR
STARTCHAR t
ENCODING 116
SWIDTH 374 0
DWIDTH 7 0
BBX 6 13 1 0
BITMAP
60
60
FC
FC
60
60
60
60
60
60
60
7C
3C
ENDCHAR
STARTCHAR u
ENCODING 117
SWIDTH 620 0
DWIDTH 12 0
BBX 9 11 2 0
BITMAP
C180
C180
C180
C180
C180
C180
C180
C380
C780
FD80
7980
ENDCHAR
STARTCHAR v
ENCODING 118
SWIDTH 572 0
DWIDTH 10 0
BBX 10 11 0 0
BITMAP
C0C0
E1C0
6180
6180
7300
3300
3300
1E00
1E00
1E00
0C00
ENDCHAR
STARTCHAR w
ENCODING 119
SWIDTH 840 0
DWIDTH 15 0
BBX 15 11 0 0
BITMAP
C386
C386
638C
66CC
66CC
66D8
36D8
3C78
3C78
3C70
1870
ENDCHAR
STARTCHAR x
ENCODING 120
SWIDTH 613 0
DWIDTH 12 0
BBX 11 11 1 0
BITMAP
E0E0
71C0
3980
1B00
0F00
0E00
1F00
3B00
3180
61C0
E0E0
ENDCHAR
STARTCHAR y
ENCODING 121
SWIDTH 568 0
DWIDTH 10 0
BBX 10 15 0 -4
BITMAP
C0C0
E1C0
6180
6180
3300
3300
3300
1E00
1E00
1E00
0C00
0C00
1800
1800
3800
ENDCHAR
STARTCHAR z
ENCODING 122
SWIDTH 573 0
DWIDTH 11 0
BBX 9 11 1 0
BITMAP
FF80
FF80
0300
0600
0E00
1C00
3800
7000
6000
FF80
FF80
ENDCHAR
STARTCHAR braceleft
ENCODING 123
SWIDTH 325 0
DWIDTH 7 0
BBX 5 17 0 -3
BITMAP
18
38
30
30
30
30
30
20
C0
E0
30
30
30
30
30
38
18
ENDCHAR
STARTCHAR bar
ENCODING 124
SWIDTH 265 0
DWIDTH 5 0
BBX 2 17 2 -3
BITMAP
C0
C0
C0
C0
C0
C0
C0
C0
C0
C0
C0
C0
C0
C0
C0
C0
C0
ENDCHAR
STARTCHAR braceright
ENCODING 125
SWIDTH 325 0
DWIDTH 7 0
BBX 5 17 1 -3
BITMAP
C0
E0
60
60
60
60
60
38
18
20
60
60
60
60
60
E0
C0
ENDCHAR
STARTCHAR asciitilde
ENCODING 126
SWIDTH 633 0
DWIDTH 13 0
BBX 12 4 0 4
BITMAP
7830
FE30
C7E0
C1E0
ENDCHAR
STARTCHAR Aogonek
ENCODING 161
SWIDTH 690 0
DWIDTH 14 0
BBX 13 17 0 -3
BITMAP
0700
0700
0F80
0D80
0D80
18C0
18C0
30E0
3FE0
3FE0
6030
6030
E030
C018
0010
0020
0038
ENDCHAR
STARTCHAR breve
ENCODING 162
SWIDTH 553 0
DWIDTH 11 0
BBX 7 3 2 11
BITMAP
82
7C
38
ENDCHAR
STARTCHAR Lslash
ENCODING 163
SWIDTH 533 0
DWIDTH 11 0
BBX 11 14 0 0
BITMAP
3000
3000
3000
3000
3400
3C00
3800
F000
B000
3000
3000
3000
3FE0
3FE0
ENDCHAR
STARTCHAR currency
ENCODING 164
SWIDTH 633 0
DWIDTH 13 0
BBX 11 12 1 1
BITMAP
C060
EEE0
7FC0
3180
60C0
60C0
60C0
60C0
3180
7FC0
EEE0
C060
ENDCHAR
STARTCHAR Lcaron
ENCODING 165
SWIDTH 533 0
DWIDTH 11 0
BBX 9 14 2 0
BITMAP
CC00
CC00
C400
C400
C800
C000
C000
C000
C000
C000
C000
C000
FF80
FF80
ENDCHAR
STARTCHAR Sacute
ENCODING 166
SWIDTH 539 0
DWIDTH 11 0
BBX 9 18 1 0
BITMAP
0300
0600
0C00
0000
3F00
7F00
E100
C000
C000
7000
3C00
0F00
0380
0180
0180
8380
FF00
7E00
ENDCHAR
STARTCHAR section
ENCODING 167
SWIDTH 633 0
DWIDTH 13 0
BBX 8 18 2 -4
BITMAP
3E
7F
E1
C0
C0
70
7C
CE
C3
E3
73
3E
0E
03
03
87
FF
7C
ENDCHAR
STARTCHAR dieresis
ENCODING 168
SWIDTH 614 0
DWIDTH 12 0
BBX 6 2 3 12
BITMAP
CC
CC
ENDCHAR
STARTCHAR Scaron
ENCODING 169
SWIDTH 539 0
DWIDTH 11 0
BBX 9 18 1 0
BITMAP
6300
3600
1C00
0000
3F00
7F00
E100
C000
C000
7000
3C00
0F00
0380
0180
0180
8380
FF00
7E00
ENDCHAR
STARTCHAR Scedilla
ENCODING 170
SWIDTH 539 0
DWIDTH 11 0
BBX 9 18 1 -4
BITMAP
3F00
7F00
E100
C000
C000
7000
3C00
0F00
0380
0180
0180
8380
FF00
7E00
0800
0C00
0C00
1800
ENDCHAR
STARTCHAR Tcaron
ENCODING 171
SWIDTH 633 0
DWIDTH 13 0
BBX 12 18 0 0
BITMAP
18C0
0D80
0700
0000
FFF0
FFF0
0600
0600
0600
0600
0600
0600
0600
0600
0600
0600
0600
0600
ENDCHAR
STARTCHAR Zacute
ENCODING 172
SWIDTH 605 0
DWIDTH 12 0
BBX 10 18 1 0
BITMAP
0300
0600
0C00
0000
FFC0
FFC0
0180
0380
0300
0600
0E00
1C00
1800
3000
7000
E000
FFC0
FFC0
ENDCHAR
STARTCHAR hyphen
ENCODING 173
SWIDTH 325 0
DWIDTH 7 0
BBX 4 2 1 6
BITMAP
F0
F0
ENDCHAR
STARTCHAR Zcaron
ENCODING 174
SWIDTH 605 0
DWIDTH 12 0
BBX 10 18 1 0
BITMAP
3180
1B00
0E00
0000
FFC0
FFC0
0180
0380
0300
0600
0E00
1C00
1800
3000
7000
E000
FFC0
FFC0
ENDCHAR
STARTCHAR Zdotaccent
ENCODING 175
SWIDTH 605 0
DWIDTH 12 0
BBX 10 17 1 0
BITMAP
0C00
0C00
0000
FFC0
FFC0
0180
0380
0300
0600
0E00
1C00
1800
3000
7000
E000
FFC0
FFC0
ENDCHAR
STARTCHAR degree
ENCODING 176
SWIDTH 277 0
DWIDTH 6 0
BBX 3 3 1 11
BITMAP
E0
A0
E0
ENDCHAR
STARTCHAR aogonek
ENCODING 177
SWIDTH 552 0
DWIDTH 11 0
BBX 11 14 1 -3
BITMAP
3E00
7F00
4300
0300
3F00
7F00
E300
C300
C700
FDC0
79C0
0040
0080
00E0
ENDCHAR
STARTCHAR ogonek
ENCODING 178
SWIDTH 452 0
DWIDTH 9 0
BBX 3 3 3 -3
BITMAP
40
80
E0
ENDCHAR
STARTCHAR lslash
ENCODING 179
SWIDTH 289 0
DWIDTH 6 0
BBX 6 14 0 0
BITMAP
30
30
30
34
3C
38
70
B0
30
30
30
30
30
30
ENDCHAR
STARTCHAR acute
ENCODING 180
SWIDTH 614 0
DWIDTH 12 0
BBX 4 3 5 11
BITMAP
30
60
C0
ENDCHAR
STARTCHAR lcaron
ENCODING 181
SWIDTH 337 0
DWIDTH 7 0
BBX 6 14 2 0
BITMAP
CC
CC
C4
C4
C8
C0
C0
C0
C0
C0
C0
C0
C0
C0
ENDCHAR
STARTCHAR sacute
ENCODING 182
SWIDTH 510 0
DWIDTH 10 0
BBX 7 15 2 0
BITMAP
0C
18
30
00
7C
FC
C0
C0
F0
7C
1E
06
86
FE
7C
ENDCHAR
STARTCHAR caron
ENCODING 183
SWIDTH 553 0
DWIDTH 11 0
BBX 7 3 2 11
BITMAP
C6
6C
38
ENDCHAR
STARTCHAR cedilla
ENCODING 184
SWIDTH 452 0
DWIDTH 9 0
BBX 3 5 3 -4
BITMAP
40
C0
60
60
C0
ENDCHAR
STARTCHAR scaron
ENCODING 185
SWIDTH 510 0
DWIDTH 10 0
BBX 7 15 2 0
BITMAP
C6
6C
38
00
7C
FC
C0
C0
F0
7C
1E
06
86
FE
7C
ENDCHAR
STARTCHAR scedilla
ENCODING 186
SWIDTH 510 0
DWIDTH 10 0
BBX 7 15 2 -4
BITMAP
7C
FC
C0
C0
F0
7C
1E
06
86
FE
7C
10
18
18
30
ENDCHAR
STARTCHAR tcaron
ENCODING 187
SWIDTH 427 0
DWIDTH 8 0
BBX 7 16 1 0
BITMAP
06
06
02
62
64
FC
FC
60
60
60
60
60
60
60
7C
3C
ENDCHAR
STARTCHAR zacute
ENCODING 188
SWIDTH 573 0
DWIDTH 11 0
BBX 9 15 1 0
BITMAP
0300
0600
0C00
0000
FF80
FF80
0300
0600
0E00
1C00
3800
7000
6000
FF80
FF80
ENDCHAR
STARTCHAR hungarumlaut
ENCODING 189
SWIDTH 502 0
DWIDTH 10 0
BBX 6 3 2 11
BITMAP
3C
58
F0
ENDCHAR
STARTCHAR zcaron
ENCODING 190
SWIDTH 573 0
DWIDTH 11 0
BBX 9 15 1 0
BITMAP
6300
3600
1C00
0000
FF80
FF80
0300
0600
0E00
1C00
3800
7000
6000
FF80
FF80
ENDCHAR
STARTCHAR zdotaccent
ENCODING 191
SWIDTH 573 0
DWIDTH 11 0
BBX 9 15 1 0
BITMAP
0C00
0C00
0000
0000
FF80
FF80
0300
0600
0E00
1C00
3800
7000
6000
FF80
FF80
ENDCHAR
STARTCHAR Racute
ENCODING 192
SWIDTH 633 0
DWIDTH 13 0
BBX 11 18 2 0
BITMAP
0600
0C00
1800
0000
FE00
FF00
C380
C180
C180
C100
C700
FC00
FE00
C600
C700
C380
C1C0
C0E0
ENDCHAR
STARTCHAR Aacute
ENCODING 193
SWIDTH 690 0
DWIDTH 14 0
BBX 13 18 0 0
BITMAP
0180
0300
0600
0000
0700
0700
0F80
0D80
0D80
18C0
18C0
30E0
3FE0
3FE0
6030
6030
E030
C018
ENDCHAR
STARTCHAR Acircumflex
ENCODING 194
SWIDTH 690 0
DWIDTH 14 0
BBX 13 18 0 0
BITMAP
0700
0D80
18C0
0000
0700
0700
0F80
0D80
0D80
18C0
18C0
30E0
3FE0
3FE0
6030
6030
E030
C018
ENDCHAR
STARTCHAR Abreve
ENCODING 195
SWIDTH 690 0
DWIDTH 14 0
BBX 13 18 0 0
BITMAP
1040
0F80
0700
0000
0700
0700
0F80
0D80
0D80
18C0
18C0
30E0
3FE0
3FE0
6030
6030
E030
C018
ENDCHAR
STARTCHAR Adieresis
ENCODING 196
SWIDTH 690 0
DWIDTH 14 0
BBX 13 17 0 0
BITMAP
0CC0
0CC0
0000
0700
0700
0F80
0D80
0D80
18C0
18C0
30E0
3FE0
3FE0
6030
6030
E030
C018
ENDCHAR
STARTCHAR Lacute
ENCODING 197
SWIDTH 533 0
DWIDTH 11 0
BBX 9 18 2 0
BITMAP
1800
3000
6000
0000
C000
C000
C000
C000
C000
C000
C000
C000
C000
C000
C000
C000
FF80
FF80
ENDCHAR
STARTCHAR Cacute
ENCODING 198
SWIDTH 692 0
DWIDTH 14 0
BBX 12 18 1 0
BITMAP
0060
00C0
0180
0000
0FE0
3FF0
7810
6000
E000
C000
C000
C000
C000
E000
6000
7810
3FF0
0FC0
ENDCHAR
STARTCHAR Ccedilla
ENCODING 199
SWIDTH 692 0
DWIDTH 14 0
BBX 12 18 1 -4
BITMAP
0FE0
3FF0
7810
6000
E000
C000
C000
C000
C000
E000
6000
7810
3FF0
0FC0
0200
0300
0300
0600
ENDCHAR
STARTCHAR Ccaron
ENCODING 200
SWIDTH 692 0
DWIDTH 14 0
BBX 12 18 1 0
BITMAP
0C60
06C0
0380
0000
0FE0
3FF0
7810
6000
E000
C000
C000
C000
C000
E000
6000
7810
3FF0
0FC0
ENDCHAR
STARTCHAR Eacute
ENCODING 201
SWIDTH 542 0
DWIDTH 11 0
BBX 8 18 2 0
BITMAP
0C
18
30
00
FF
FF
C0
C0
C0
C0
FE
FE
C0
C0
C0
C0
FF
FF
ENDCHAR
STARTCHAR Eogonek
ENCODING 202
SWIDTH 542 0
DWIDTH 11 0
BBX 8 17 2 -3
BITMAP
FF
FF
C0
C0
C0
C0
FE
FE
C0
C0
C0
C0
FF
FF
02
04
07
ENDCHAR
STARTCHAR Edieresis
ENCODING 203
SWIDTH 542 0
DWIDTH 11 0
BBX 8 17 2 0
BITMAP
CC
CC
00
FF
FF
C0
C0
C0
C0
FE
FE
C0
C0
C0
C0
FF
FF
ENDCHAR
STARTCHAR Ecaron
ENCODING 204
SWIDTH 542 0
DWIDTH 11 0
BBX 8 18 2 0
BITMAP
63
36
1C
00
FF
FF
C0
C0
C0
C0
FE
FE
C0
C0
C0
C0
FF
FF
ENDCHAR
STARTCHAR Iacute
ENCODING 205
SWIDTH 288 0
DWIDTH 6 0
BBX 4 18 2 0
BITMAP
30
60
C0
00
C0
C0
C0
C0
C0
C0
C0
C0
C0
C0
C0
C0
C0
C0
ENDCHAR
STARTCHAR Icircumflex
ENCODING 206
SWIDTH 288 0
DWIDTH 6 0
BBX 7 18 4 0
BITMAP
38
6C
C6
00
30
30
30
30
30
30
30
30
30
30
30
30
30
30
ENDCHAR
STARTCHAR Dcaron
ENCODING 207
SWIDTH 749 0
DWIDTH 15 0
BBX 12 18 2 0
BITMAP
3180
1B00
0E00
0000
FF00
FFC0
C1E0
C060
C030
C030
C030
C030
C030
C030
C060
C0E0
FFC0
FF00
ENDCHAR
STARTCHAR Eth
ENCODING 208
SWIDTH 749 0
DWIDTH 15 0
BBX 14 14 0 0
BITMAP
3FC0
3FF0
3078
3018
300C
300C
FE0C
FE0C
300C
300C
3018
3038
3FF0
3FC0
ENDCHAR
STARTCHAR Nacute
ENCODING 209
SWIDTH 741 0
DWIDTH 15 0
BBX 11 18 2 0
BITMAP
0180
0300
0600
0000
E060
E060
F060
F060
D860
DC60
CC60
C660
C760
C360
C1E0
C1E0
C0E0
C060
ENDCHAR
STARTCHAR Ncaron
ENCODING 210
SWIDTH 741 0
DWIDTH 15 0
BBX 11 18 2 0
BITMAP
18C0
0D80
0700
0000
E060
E060
F060
F060
D860
DC60
CC60
C660
C760
C360
C1E0
C1E0
C0E0
C060
ENDCHAR
STARTCHAR Oacute
ENCODING 211
SWIDTH 777 0
DWIDTH 16 0
BBX 14 18 1 0
BITMAP
00C0
0180
0300
0000
0FC0
3FF0
7878
6018
E01C
C00C
C00C
C00C
C00C
E01C
6018
7878
3FF0
0FC0
ENDCHAR
STARTCHAR Ocircumflex
ENCODING 212
SWIDTH 777 0
DWIDTH 16 0
BBX 14 18 1 0
BITMAP
0380
06C0
0C60
0000
0FC0
3FF0
7878
6018
E01C
C00C
C00C
C00C
C00C
E01C
6018
7878
3FF0
0FC0
ENDCHAR
STARTCHAR Ohungarumlaut
ENCODING 213
SWIDTH 777 0
DWIDTH 16 0
BBX 14 18 1 0
BITMAP
01E0
02C0
0780
0000
0FC0
3FF0
7878
6018
E01C
C00C
C00C
C00C
C00C
E01C
6018
7878
3FF0
0FC0
ENDCHAR
STARTCHAR Odieresis
ENCODING 214
SWIDTH 777 0
DWIDTH 16 0
BBX 14 17 1 0
BITMAP
0CC0
0CC0
0000
0FC0
3FF0
7878
6018
E01C
C00C
C00C
C00C
C00C
E01C
6018
7878
3FF0
0FC0
ENDCHAR
STARTCHAR multiply
ENCODING 215
SWIDTH 633 0
DWIDTH 13 0
BBX 12 12 0 0
BITMAP
4020
E070
70E0
39C0
1F80
0F00
0F00
1F80
39C0
70E0
E070
4020
ENDCHAR
STARTCHAR Rcaron
ENCODING 216
SWIDTH 633 0
DWIDTH 13 0
BBX 11 18 2 0
BITMAP
6300
3600
1C00
0000
FE00
FF00
C380
C180
C180
C100
C700
FC00
FE00
C600
C700
C380
C1C0
C0E0
ENDCHAR
STARTCHAR Uring
ENCODING 217
SWIDTH 693 0
DWIDTH 14 0
BBX 10 18 2 0
BITMAP
0E00
0A00
0E00
0000
C0C0
C0C0
C0C0
C0C0
C0C0
C0C0
C0C0
C0C0
C0C0
C0C0
C0C0
E1C0
7F80
3F00
ENDCHAR
STARTCHAR Uacute
ENCODING 218
SWIDTH 693 0
DWIDTH 14 0
BBX 10 18 2 0
BITMAP
0600
0C00
1800
0000
C0C0
C0C0
C0C0
C0C0
C0C0
C0C0
C0C0
C0C0
C0C0
C0C0
C0C0
E1C0
7F80
3F00
ENDCHAR
STARTCHAR Uhungarumlaut
ENCODING 219
SWIDTH 693 0
DWIDTH 14 0
BBX 10 18 2 0
BITMAP
0780
0B00
1E00
0000
C0C0
C0C0
C0C0
C0C0
C0C0
C0C0
C0C0
C0C0
C0C0
C0C0
C0C0
E1C0
7F80
3F00
ENDCHAR
STARTCHAR Udieresis
ENCODING 220
SWIDTH 693 0
DWIDTH 14 0
BBX 10 17 2 0
BITMAP
3300
3300
0000
C0C0
C0C0
C0C0
C0C0
C0C0
C0C0
C0C0
C0C0
C0C0
C0C0
C0C0
E1C0
7F80
3F00
ENDCHAR
STARTCHAR Yacute
ENCODING 221
SWIDTH 623 0
DWIDTH 12 0
BBX 12 18 0 0
BITMAP
0180
0300
0600
0000
E030
6060
70E0
30C0
1980
1F80
0F00
0700
0600
0600
0600
0600
0600
0600
ENDCHAR
STARTCHAR Tcedilla
ENCODING 222
SWIDTH 633 0
DWIDTH 13 0
BBX 12 18 0 -4
BITMAP
FFF0
FFF0
0600
0600
0600
0600
0600
0600
0600
0600
0600
0600
0600
0600
0200
0300
0300
0600
ENDCHAR
STARTCHAR germandbls
ENCODING 223
SWIDTH 598 0
DWIDTH 12 0
BBX 10 16 2 0
BITMAP
7C00
FF00
E300
C300
C700
C600
CC00
CC00
CE00
C700
C380
C0C0
C0C0
D0C0
DFC0
CF80
ENDCHAR
STARTCHAR racute
ENCODING 224
SWIDTH 409 0
DWIDTH 8 0
BBX 7 15 2 0
BITMAP
06
0C
18
00
CC
DC
F0
C0
C0
C0
C0
C0
C0
C0
C0
ENDCHAR
STARTCHAR aacute
ENCODING 225
SWIDTH 552 0
DWIDTH 11 0
BBX 10 15 1 0
BITMAP
0600
0C00
1800
0000
3E00
7F00
4300
0300
3F00
7F00
E300
C300
C700
FDC0
79C0
ENDCHAR
STARTCHAR acircumflex
ENCODING 226
SWIDTH 552 0
DWIDTH 11 0
BBX 10 15 1 0
BITMAP
1C00
3600
6300
0000
3E00
7F00
4300
0300
3F00
7F00
E300
C300
C700
FDC0
79C0
ENDCHAR
STARTCHAR abreve
ENCODING 227
SWIDTH 552 0
DWIDTH 11 0
BBX 10 15 1 0
BITMAP
2080
1F00
0E00
0000
3E00
7F00
4300
0300
3F00
7F00
E300
C300
C700
FDC0
79C0
ENDCHAR
STARTCHAR adieresis
ENCODING 228
SWIDTH 552 0
DWIDTH 11 0
BBX 10 14 1 0
BITMAP
3300
3300
0000
3E00
7F00
4300
0300
3F00
7F00
E300
C300
C700
FDC0
79C0
ENDCHAR
STARTCHAR lacute
ENCODING 229
SWIDTH 289 0
DWIDTH 6 0
BBX 5 18 2 0
BITMAP
18
30
60
00
C0
C0
C0
C0
C0
C0
C0
C0
C0
C0
C0
C0
C0
C0
ENDCHAR
STARTCHAR cacute
ENCODING 230
SWIDTH 518 0
DWIDTH 10 0
BBX 8 15 1 0
BITMAP
03
06
0C
00
1F
7F
60
C0
C0
C0
C0
C0
61
7F
1E
ENDCHAR
STARTCHAR ccedilla
ENCODING 231
SWIDTH 518 0
DWIDTH 10 0
BBX 8 15 1 -4
BITMAP
1F
7F
60
C0
C0
C0
C0
C0
61
7F
1E
08
0C
0C
18
ENDCHAR
STARTCHAR ccaron
ENCODING 232
SWIDTH 518 0
DWIDTH 10 0
BBX 9 15 1 0
BITMAP
3180
1B00
0E00
0000
1F00
7F00
6000
C000
C000
C000
C000
C000
6100
7F00
1E00
ENDCHAR
STARTCHAR eacute
ENCODING 233
SWIDTH 557 0
DWIDTH 11 0
BBX 9 15 1 0
BITMAP
0600
0C00
1800
0000
1E00
7F00
6100
C180
FF80
FF80
C000
E000
7080
7F80
1F00
ENDCHAR
STARTCHAR eogonek
ENCODING 234
SWIDTH 557 0
DWIDTH 11 0
BBX 9 14 1 -3
BITMAP
1E00
7F00
6100
C180
FF80
FF80
C000
E000
7080
7F80
1F00
0400
0800
0E00
ENDCHAR
STARTCHAR edieresis
ENCODING 235
SWIDTH 557 0
DWIDTH 11 0
BBX 9 14 1 0
BITMAP
3300
3300
0000
1E00
7F00
6100
C180
FF80
FF80
C000
E000
7080
7F80
1F00
ENDCHAR
STARTCHAR ecaron
ENCODING 236
SWIDTH 557 0
DWIDTH 11 0
BBX 9 15 1 0
BITMAP
3180
1B00
0E00
0000
1E00
7F00
6100
C180
FF80
FF80
C000
E000
7080
7F80
1F00
ENDCHAR
STARTCHAR iacute
ENCODING 237
SWIDTH 289 0
DWIDTH 6 0
BBX 4 15 2 0
BITMAP
30
60
C0
00
C0
C0
C0
C0
C0
C0
C0
C0
C0
C0
C0
ENDCHAR
STARTCHAR icircumflex
ENCODING 238
SWIDTH 289 0
DWIDTH 6 0
BBX 7 15 4 0
BITMAP
38
6C
C6
00
30
30
30
30
30
30
30
30
30
30
30
ENDCHAR
STARTCHAR dcaron
ENCODING 239
SWIDTH 630 0
DWIDTH 13 0
BBX 13 14 1 0
BITMAP
00D8
00D8
00C8
1EC8
7FD0
61C0
E0C0
C0C0
C0C0
C0C0
C0C0
E1C0
7EC0
3CC0
ENDCHAR
STARTCHAR dmacron
ENCODING 240
SWIDTH 630 0
DWIDTH 13 0
BBX 11 14 1 0
BITMAP
00C0
1FE0
00C0
1EC0
7FC0
61C0
E0C0
C0C0
C0C0
C0C0
C0C0
E1C0
7EC0
3CC0
ENDCHAR
STARTCHAR nacute
ENCODING 241
SWIDTH 620 0
DWIDTH 12 0
BBX 9 15 2 0
BITMAP
0600
0C00
1800
0000
CF00
DF80
F180
E180
C180
C180
C180
C180
C180
C180
C180
ENDCHAR
STARTCHAR ncaron
ENCODING 242
SWIDTH 620 0
DWIDTH 12 0
BBX 9 15 2 0
BITMAP
3180
1B00
0E00
0000
CF00
DF80
F180
E180
C180
C180
C180
C180
C180
C180
C180
ENDCHAR
STARTCHAR oacute
ENCODING 243
SWIDTH 614 0
DWIDTH 12 0
BBX 10 15 1 0
BITMAP
0300
0600
0C00
0000
1E00
7F80
6180
C0C0
C0C0
C0C0
C0C0
C0C0
6180
7F80
1E00
ENDCHAR
STARTCHAR ocircumflex
ENCODING 244
SWIDTH 614 0
DWIDTH 12 0
BBX 10 15 1 0
BITMAP
0E00
1B00
3180
0000
1E00
7F80
6180
C0C0
C0C0
C0C0
C0C0
C0C0
6180
7F80
1E00
ENDCHAR
STARTCHAR ohungarumlaut
ENCODING 245
SWIDTH 614 0
DWIDTH 12 0
BBX 10 15 1 0
BITMAP
0780
0B00
1E00
0000
1E00
7F80
6180
C0C0
C0C0
C0C0
C0C0
C0C0
6180
7F80
1E00
ENDCHAR
STARTCHAR odieresis
ENCODING 246
SWIDTH 614 0
DWIDTH 12 0
BBX 10 14 1 0
BITMAP
3300
3300
0000
1E00
7F80
6180
C0C0
C0C0
C0C0
C0C0
C0C0
6180
7F80
1E00
ENDCHAR
STARTCHAR divide
ENCODING 247
SWIDTH 633 0
DWIDTH 13 0
BBX 12 11 0 0
BITMAP
0600
0600
0000
0000
0000
FFF0
FFF0
0000
0000
0600
0600
ENDCHAR
STARTCHAR rcaron
ENCODING 248
SWIDTH 409 0
DWIDTH 8 0
BBX 8 15 2 0
BITMAP
63
36
1C
00
CC
DC
F0
C0
C0
C0
C0
C0
C0
C0
C0
ENDCHAR
STARTCHAR uring
ENCODING 249
SWIDTH 620 0
DWIDTH 12 0
BBX 9 15 2 0
BITMAP
1C00
1400
1C00
0000
C180
C180
C180
C180
C180
C180
C180
C380
C780
FD80
7980
ENDCHAR
STARTCHAR uacute
ENCODING 250
SWIDTH 620 0
DWIDTH 12 0
BBX 9 15 2 0
BITMAP
0600
0C00
1800
0000
C180
C180
C180
C180
C180
C180
C180
C380
C780
FD80
7980
ENDCHAR
STARTCHAR uhungarumlaut
ENCODING 251
SWIDTH 620 0
DWIDTH 12 0
BBX 9 15 2 0
BITMAP
0780
0B00
1E00
0000
C180
C180
C180
C180
C180
C180
C180
C380
C780
FD80
7980
ENDCHAR
STARTCHAR udieresis
ENCODING 252
SWIDTH 620 0
DWIDTH 12 0
BBX 9 14 2 0
BITMAP
3300
3300
0000
C180
C180
C180
C180
C180
C180
C180
C380
C780
FD80
7980
ENDCHAR
STARTCHAR yacute
ENCODING 253
SWIDTH 568 0
DWIDTH 10 0
BBX 10 19 0 -4
BITMAP
0600
0C00
1800
0000
C0C0
E1C0
6180
6180
3300
3300
3300
1E00
1E00
1E00
0C00
0C00
1800
1800
3800
ENDCHAR
STARTCHAR tcedilla
ENCODING 254
SWIDTH 374 0
DWIDTH 7 0
BBX 6 17 1 -4
BITMAP
60
60
FC
FC
60
60
60
60
60
60
60
7C
3C
08
0C
0C
18
ENDCHAR
STARTCHAR dotaccent
ENCODING 255
SWIDTH 402 0
DWIDTH 8 0
BBX 2 2 3 12
BITMAP
C0
C0
ENDCHAR
ENDFONT
